<svg version="1.1" xmlns="http://www.w3.org/2000/svg" viewBox="0 0 405.18943223754627 282.8620508416664" width="810.3788644750925" height="565.7241016833328">
  <!-- svg-source:excalidraw -->
  
  <defs>
    <style class="style-fonts">
      @font-face {
        font-family: "Virgil";
        src: url("https://excalidraw.com/Virgil.woff2");
      }
      @font-face {
        font-family: "Cascadia";
        src: url("https://excalidraw.com/Cascadia.woff2");
      }
    </style>
    
  </defs>
  <rect x="0" y="0" width="405.18943223754627" height="282.8620508416664" fill="#ffffff"></rect><g stroke-linecap="round" transform="translate(166.23027810564486 10) rotate(0 38.167021605795526 33.769195145275376)"><path d="M9.51 12.25 C9.51 12.25, 9.51 12.25, 9.51 12.25 M9.51 12.25 C9.51 12.25, 9.51 12.25, 9.51 12.25 M2.94 26.13 C8 19.69, 10.77 13.87, 20.28 5.59 M0.5 27.79 C7.51 19.55, 14.02 12.77, 20.92 6.52 M2.53 33.64 C8.6 25.59, 17.13 14.14, 27.12 2.83 M2.4 33 C7 26.52, 14.01 19.66, 28.56 2.58 M2.52 35.99 C11.98 25.73, 19.24 19.92, 35.61 2.1 M4.04 37.78 C11.4 28.15, 19.12 20.06, 33.8 3.23 M4.99 40.92 C16.46 25.15, 31.84 10.4, 37.96 2.96 M4.82 43.06 C19.1 25.81, 32.14 11.85, 38.63 1.45 M7.21 48.44 C21.46 31.08, 37.54 10.52, 44.49 3.57 M4.83 47.76 C16.26 34.21, 27.03 23.09, 44.47 2.69 M7.1 53.9 C23.42 32.73, 38.18 15.2, 47.5 3.67 M7.13 52.93 C17.47 39.54, 28.58 29.15, 49 2.87 M10.6 56.19 C28.48 34.36, 44.11 16.12, 54.79 3.54 M10.05 55.19 C18.12 43.57, 29.2 32.51, 54.49 4.6 M14.51 55.82 C26.07 41.44, 43.67 23.97, 56.39 5.07 M12.89 57.79 C25.1 42.46, 38.44 27.15, 57.39 5.26 M17.83 58.59 C32.54 40.13, 48.05 24.76, 60.63 7.68 M16.12 59.51 C33.07 40.67, 49.98 20.22, 59.33 8.13 M17.87 60.14 C33.6 41.8, 52.49 24.19, 64.18 10.13 M18.39 62.3 C32.17 46.49, 44.94 31.5, 64.03 11.25 M22.98 64.64 C37.55 47.98, 49.92 31.44, 68.92 14.26 M22.1 65.12 C35.5 48.36, 49.07 34.1, 66.99 12.34 M26.66 67.13 C36.9 56.84, 46.53 42.3, 71.9 14.2 M24.42 67.32 C37.17 54.27, 46.67 42.1, 70.39 15.14 M30.93 65.68 C39.72 54.83, 53.23 43.24, 72.86 17.69 M29.51 68.05 C44.65 49.76, 59.72 32.42, 73.41 17.77 M37.17 67.45 C49.31 52.85, 64.15 34.09, 73.56 22.28 M36.25 67.35 C43.6 57.11, 52.92 47.92, 74.54 22.18 M41.44 68.43 C52.83 50.64, 69 36.82, 74.54 26.05 M40.45 67.04 C51.92 54.57, 64.12 41.03, 77.12 25.91 M47.96 64.4 C56.29 58.57, 62.54 48.62, 75.95 31.96 M47.16 66.85 C56 56.84, 63.54 48.37, 77.07 31.56 M57.78 61.72 C66.26 52.3, 70.93 43.86, 79.54 36.99 M58.24 60.25 C63.5 53.89, 71.45 45.12, 77.8 37.13" stroke="#b2f2bb" stroke-width="0.5" fill="none"></path><path d="M27.88 1.74 C34.66 -0.24, 44.46 0.1, 51.69 2.39 C58.93 4.68, 67.09 9.81, 71.28 15.49 C75.46 21.18, 77.58 29.8, 76.8 36.51 C76.03 43.21, 71.55 50.79, 66.63 55.73 C61.7 60.67, 54.5 64.58, 47.25 66.14 C40.01 67.7, 30.2 67.65, 23.18 65.09 C16.15 62.53, 9.03 56.46, 5.1 50.78 C1.17 45.11, -1.15 37.47, -0.38 31.01 C0.39 24.55, 3.93 17.25, 9.72 12.01 C15.51 6.77, 29.41 1.31, 34.36 -0.42 C39.31 -2.16, 39.28 0.99, 39.43 1.61 M20.89 4.31 C26.98 1.08, 37.53 -0.11, 44.84 0.64 C52.16 1.4, 59.44 4.42, 64.77 8.83 C70.1 13.24, 75.67 20.62, 76.81 27.09 C77.95 33.57, 75.21 41.49, 71.6 47.68 C67.99 53.86, 61.81 60.92, 55.16 64.2 C48.52 67.48, 38.98 68.43, 31.71 67.38 C24.44 66.33, 16.83 62.53, 11.54 57.88 C6.25 53.23, 1.13 45.9, -0.05 39.5 C-1.23 33.1, 1.19 25.31, 4.47 19.48 C7.75 13.65, 16.9 7.19, 19.6 4.51 C22.31 1.83, 20.36 3.05, 20.72 3.4" stroke="#000000" stroke-width="1" fill="none"></path></g><g transform="translate(201.6991408318163 31.390768262839316) rotate(0 2.7099990844726562 12.5)"><text x="2.7099990844726562" y="0" font-family="Virgil, Segoe UI Emoji" font-size="20px" fill="#000000" text-anchor="middle" style="white-space: pre;" direction="ltr" dominant-baseline="text-before-edge">1</text></g><g stroke-linecap="round" transform="translate(88.93644866325599 102.67428441452273) rotate(0 38.167021605795526 33.769195145275376)"><path d="M7.11 15.46 C7.11 15.46, 7.11 15.46, 7.11 15.46 M7.11 15.46 C7.11 15.46, 7.11 15.46, 7.11 15.46 M4.1 25.73 C7.03 20.38, 16.26 13.9, 22.79 2.67 M3.79 26.78 C9.26 19.9, 14.06 13.2, 21.16 3.85 M-0.86 34.8 C9.08 25.63, 18.18 14.37, 28.38 3.54 M0.13 34.99 C8.08 26.47, 16.34 19.02, 27.25 4.55 M2.06 38.92 C10.1 31.36, 14.19 23.46, 33.07 3.88 M0.76 39.37 C13.43 28.15, 24.02 14.02, 31.7 3.75 M3.64 43.63 C10.73 35.44, 17.71 24.39, 39.05 3.83 M3.5 44.75 C11.67 35.88, 18.82 26.17, 38.28 4.98 M7.73 48.52 C15.07 37.29, 23.68 25.76, 45.08 3.1 M5.8 46.6 C13.46 36.99, 23.15 28.81, 43.86 4.09 M8.75 50.73 C23.12 34.59, 40.76 11.48, 50.54 4.47 M7.23 51.66 C20.81 35.88, 35.68 20.63, 49.25 1.8 M9.04 54.97 C24.16 39.07, 36.11 21.45, 54.94 3.07 M9.59 55.05 C20.8 43.67, 30.2 33.22, 53.63 4.15 M11.71 57.29 C27.71 39.58, 47.51 21.44, 55.84 7.06 M12.69 57.19 C22.9 46.28, 32.65 35.49, 57.34 6.27 M14.67 58.8 C27.05 49.05, 35.65 34.85, 59.68 7.67 M17.24 58.66 C31.61 42.14, 47.97 24.18, 59.57 9.61 M18.7 61.69 C35.8 43.37, 52.27 23.86, 65.28 11.97 M19.82 61.29 C33.47 46.78, 45.29 31.55, 64.74 11.75 M24.91 63.7 C35.96 49.53, 48.08 37.7, 67.11 11.09 M23.17 63.84 C39.96 43.92, 59.02 23.25, 68.69 11.82 M25.44 67.16 C37.05 53.79, 44.58 44.67, 70.85 16.99 M27.81 66.08 C40.09 50.04, 54.29 35.25, 71.02 14.33 M34.2 64.43 C45.32 47.89, 58.76 32.28, 70.69 20.95 M31.63 65.42 C41.25 54.7, 49.99 45.58, 73.37 18.85 M36.42 65.01 C50.94 48.56, 65.15 34.52, 76.11 22.57 M38.31 65.09 C48.58 52.1, 58.67 41.1, 74.98 24.06 M41.91 65.43 C52.98 56.68, 57.96 48.89, 77.33 28.74 M43.48 65.19 C53.08 53.96, 63.58 43.79, 75.11 27.95 M50.51 63.78 C57.87 55.82, 65.37 47.08, 79.39 31.46 M49.04 64.35 C57.85 56.2, 66.87 45.53, 77.89 32.64 M51.6 64.99 C62.09 53.96, 73.19 43.84, 78.85 35.04 M53.49 66.12 C59.23 59.12, 64.44 54.41, 80 36.78" stroke="#b2f2bb" stroke-width="0.5" fill="none"></path><path d="M48.25 1.05 C55.26 2.38, 63.98 7.66, 68.73 13.07 C73.49 18.47, 76.45 27.02, 76.78 33.46 C77.1 39.89, 74.92 46.44, 70.71 51.65 C66.5 56.87, 58.8 62.48, 51.52 64.76 C44.24 67.04, 34.23 67.1, 27.02 65.34 C19.82 63.58, 12.91 59.19, 8.3 54.19 C3.69 49.18, -0.5 41.83, -0.64 35.31 C-0.79 28.8, 3.17 20.59, 7.43 15.1 C11.68 9.6, 17.38 4.34, 24.88 2.35 C32.38 0.35, 47.65 2.82, 52.44 3.13 C57.22 3.44, 53.77 3.96, 53.59 4.22 M21.94 4.68 C28.01 1.43, 38.14 0.12, 45.59 1.29 C53.04 2.47, 61.77 7.1, 66.62 11.74 C71.47 16.38, 73.69 22.9, 74.67 29.13 C75.66 35.36, 75.83 43.09, 72.55 49.12 C69.27 55.14, 62.01 62.16, 55.01 65.27 C48 68.38, 37.83 69.28, 30.5 67.79 C23.17 66.3, 15.95 61.11, 11.04 56.32 C6.13 51.52, 2.11 45.43, 1.05 39.03 C-0.01 32.63, 1.1 23.97, 4.69 17.93 C8.29 11.89, 19.76 5.05, 22.63 2.79 C25.5 0.54, 21.63 3.78, 21.92 4.41" stroke="#000000" stroke-width="1" fill="none"></path></g><g transform="translate(120.93531779811883 124.06505267736205) rotate(0 6.17999267578125 12.5)"><text x="6.17999267578125" y="0" font-family="Virgil, Segoe UI Emoji" font-size="20px" fill="#000000" text-anchor="middle" style="white-space: pre;" direction="ltr" dominant-baseline="text-before-edge">5</text></g><g stroke-linecap="round" transform="translate(247.9553593996759 104.54133126149702) rotate(0 38.167021605795526 33.769195145275376)"><path d="M7.81 12.09 C7.81 12.09, 7.81 12.09, 7.81 12.09 M7.81 12.09 C7.81 12.09, 7.81 12.09, 7.81 12.09 M3.54 22.77 C7.09 18.72, 9.97 15.31, 16.89 7.05 M4.31 21.22 C6.56 18.83, 10.26 16.1, 17.43 7.2 M0.29 32.15 C7.75 23.92, 18.88 12.57, 26.54 2.32 M0.57 31.51 C8.39 23.97, 13.9 15.45, 25.57 3.65 M5.56 35.26 C12.6 24.95, 22.42 11.48, 32.62 4.1 M3.89 34.22 C10.09 28.28, 14.6 21.84, 30.77 5.1 M5.03 41.18 C16.53 27.5, 25.73 17.39, 36.4 2.89 M4.08 39.42 C10.39 32.21, 18.01 25.48, 36.13 3.77 M7.38 44.83 C19.01 27.87, 33.24 11.45, 42.15 5.61 M5.07 45.78 C19.47 28.84, 33.12 13.98, 41.06 4.8 M6.2 50.43 C19.99 32.83, 31.96 20.85, 48.26 2.74 M8.06 48.78 C17.84 38.86, 26.11 26.74, 47.52 4.24 M9.94 53.81 C24.21 34.94, 39.1 18.88, 53.87 2.31 M8.53 53.81 C21.88 38.57, 33.66 24.79, 53.81 1.91 M11.06 56.27 C24.13 41.71, 38.89 24.6, 55.51 5.7 M12.56 57.03 C28.08 37.81, 44.62 18.39, 56.33 6.07 M13.39 58.48 C26.09 43.94, 39.29 33.33, 57.49 7.5 M15.34 58.03 C27.76 45.09, 39.47 30.09, 59.09 8.24 M19.34 60.66 C32.31 45.48, 47.74 24.96, 61.32 7.68 M17.44 60.94 C30.48 47.03, 40.79 35.5, 62.25 10.07 M23.1 65.06 C34.21 46.87, 47.29 32.53, 65.61 11.5 M21.18 63.78 C39.1 44.05, 55.44 24.31, 65.16 12.32 M23.95 66.99 C35.82 48.84, 50.95 37.01, 69.26 13.75 M25.03 66.37 C41.11 45.76, 58.81 26.07, 68.67 15.85 M27.5 69.84 C47.22 49.6, 62.08 29.34, 72.74 17.79 M28.02 68.17 C41.07 51.85, 55.65 35.56, 73.53 17.56 M34.88 67 C45.56 51.9, 57.26 37.22, 73.4 20.82 M32.03 69.18 C48.4 51.54, 63.42 34.8, 72.82 22.57 M38.09 67.72 C51.31 55.14, 64.94 40.44, 74.57 27.28 M38.28 68.58 C47.13 59.51, 55.6 48.59, 74.18 26.45 M43.22 69.29 C56.62 54.13, 68.22 41.99, 76.94 30.71 M43.61 67.84 C51.07 60.84, 57.76 51.94, 76.33 29.98 M48.95 66.03 C54.85 60.85, 62.19 55.15, 77.78 34.43 M50.22 66.55 C58.31 57.5, 67.23 47.98, 77.4 34.73 M60.54 59.58 C63.22 56.81, 67.56 51.16, 73.6 45.14 M60.68 59.6 C63.32 57.58, 67.52 54.85, 74.65 45.44" stroke="#b2f2bb" stroke-width="0.5" fill="none"></path><path d="M28.05 2.12 C34.88 -0.11, 44.09 -1.12, 51.16 1.11 C58.24 3.33, 66.36 9.89, 70.51 15.48 C74.65 21.07, 76.24 28.17, 76.04 34.65 C75.83 41.12, 73.76 49, 69.29 54.34 C64.82 59.68, 56.46 64.72, 49.23 66.68 C42 68.64, 33.02 68.51, 25.91 66.13 C18.8 63.74, 10.72 57.83, 6.57 52.36 C2.41 46.88, 0.79 39.95, 0.98 33.26 C1.17 26.57, 2.6 17.51, 7.71 12.22 C12.81 6.92, 26.97 3.34, 31.59 1.51 C36.21 -0.33, 35.52 0.78, 35.42 1.21 M50.33 2.13 C57.36 3.14, 65.21 7.26, 69.77 12.3 C74.33 17.34, 77.97 25.41, 77.71 32.38 C77.45 39.34, 72.64 48.44, 68.21 54.1 C63.79 59.75, 58.21 64.46, 51.17 66.31 C44.12 68.16, 33.25 67.18, 25.94 65.2 C18.62 63.21, 11.67 59.54, 7.27 54.4 C2.88 49.25, -0.51 41.1, -0.43 34.31 C-0.35 27.52, 3.37 19.07, 7.74 13.67 C12.12 8.28, 19 3.93, 25.83 1.94 C32.66 -0.05, 45 1.59, 48.74 1.74 C52.48 1.89, 48.47 2.09, 48.28 2.84" stroke="#000000" stroke-width="1" fill="none"></path></g><g transform="translate(279.0142260931325 125.93209952433634) rotate(0 7.1199951171875 12.5)"><text x="7.1199951171875" y="0" font-family="Virgil, Segoe UI Emoji" font-size="20px" fill="#000000" text-anchor="middle" style="white-space: pre;" direction="ltr" dominant-baseline="text-before-edge">2</text></g><g stroke-linecap="round" transform="translate(10 201.54181629842088) rotate(0 38.167021605795526 33.769195145275376)"><path d="M9.03 11.82 C9.03 11.82, 9.03 11.82, 9.03 11.82 M9.03 11.82 C9.03 11.82, 9.03 11.82, 9.03 11.82 M2.74 23.73 C11.37 17.83, 15.32 9.82, 20.17 6.25 M3.52 22.78 C7.7 18.07, 11.84 14.54, 19.91 5.98 M1.46 33.69 C9.86 22.07, 16.88 13.07, 27.11 2.09 M1.97 31.39 C12.74 20.34, 21.73 8.61, 29.58 1 M1.51 35.7 C15.87 23.72, 23.98 9.84, 34.49 2.92 M2.39 37.55 C10.8 28.73, 19.45 18.46, 33.4 2.18 M5.49 43.28 C16.23 28.35, 27.09 14.2, 38.25 2.59 M4.65 41.86 C14.11 31.08, 23.77 18.61, 39.19 2.53 M7.08 46.26 C14.01 34.95, 25.05 25.26, 44.33 1.57 M4.33 47.77 C17.99 32.24, 29.99 17.78, 43.22 2.39 M4.53 49.81 C23.14 31.85, 38.19 14.33, 49.95 0.9 M7.02 51.76 C18.16 38.21, 31.54 23.94, 48.41 2.49 M7.33 55.36 C24.03 35.4, 41.35 17.9, 52.41 1.41 M9.95 53.47 C18.4 45.12, 26.47 34.1, 53.95 2.34 M11.77 57.98 C29.35 38.67, 41.11 21.29, 55.81 5.31 M12.37 56.05 C24.06 43.6, 35.43 29.49, 56.98 4.86 M16.95 57.78 C30.95 40.98, 41.68 27.38, 62.43 7.81 M16.41 58.85 C27.1 45.38, 37.28 33.48, 60.8 7.22 M19.47 60.93 C37.74 42.96, 55.24 20.2, 64.9 10.23 M18.72 61.45 C34.5 42.21, 50.26 24.43, 63.89 11.02 M24.25 65.19 C37.69 44, 54.21 23.84, 64.89 12.47 M22.11 62.35 C34.25 50.54, 45.17 37.39, 67.49 11.89 M27.3 65.39 C42.4 45.96, 62.04 26.96, 71.85 14.46 M25.22 65.57 C41.5 49.03, 56.67 32.09, 69.29 14.07 M30.36 65.89 C43.51 53.31, 54.25 38.91, 73.83 17.75 M30.01 66.28 C43.22 51.83, 57.11 36.6, 72.99 17.14 M37.12 65.68 C43.57 55.28, 54.43 46.36, 76.2 22.43 M34.89 66.95 C44.21 55.88, 53.97 45.65, 73.99 22.05 M39.93 66.79 C47.16 57.33, 55.72 49.77, 73.63 26.66 M40.26 66.93 C49.24 56.15, 59.85 46.86, 76.24 27.76 M45.12 68.81 C52.98 58.72, 63.04 49.81, 78.32 31.16 M44.75 68.1 C56.65 56.14, 66.61 43.76, 77.29 30.91 M50.53 67.93 C59.27 55.33, 69.61 43.18, 79.37 36.01 M49.6 67.01 C58.63 58.77, 65.8 49.86, 76.61 37.65 M59.62 62.09 C63.66 59.32, 66.49 53.89, 72.27 47.25 M61.46 61.26 C64.21 58.09, 68.79 53.62, 71.92 49.25" stroke="#b2f2bb" stroke-width="0.5" fill="none"></path><path d="M27.99 0.85 C34.64 -1.17, 45.23 -0.37, 52.38 2.05 C59.53 4.46, 67 9.87, 70.91 15.34 C74.81 20.8, 76.44 28.08, 75.8 34.83 C75.16 41.58, 71.62 50.52, 67.07 55.83 C62.52 61.13, 55.75 65.22, 48.48 66.64 C41.21 68.06, 30.66 66.9, 23.46 64.32 C16.26 61.74, 9.06 56.66, 5.28 51.17 C1.5 45.68, 0.19 37.9, 0.77 31.39 C1.36 24.88, 3.24 17.28, 8.8 12.09 C14.36 6.91, 29.02 2.33, 34.13 0.27 C39.24 -1.79, 39.29 -0.79, 39.44 -0.27 M25.31 3.03 C31.91 0.86, 41.95 0.75, 48.92 2.5 C55.89 4.24, 62.53 8.25, 67.11 13.51 C71.69 18.77, 76.11 27.47, 76.42 34.07 C76.72 40.66, 73.37 47.61, 68.92 53.09 C64.47 58.58, 56.5 64.79, 49.73 66.98 C42.97 69.17, 35.26 68.4, 28.33 66.23 C21.41 64.06, 12.98 59.04, 8.19 53.96 C3.4 48.89, -0.07 42.49, -0.41 35.76 C-0.75 29.02, 1.93 19.1, 6.16 13.57 C10.39 8.05, 21.74 4.65, 24.96 2.61 C28.18 0.58, 25.41 1.13, 25.48 1.37" stroke="#000000" stroke-width="1" fill="none"></path></g><g transform="translate(42.08886547275347 222.9325845612602) rotate(0 6.089996337890625 12.499999999999986)"><text x="6.089996337890625" y="0" font-family="Virgil, Segoe UI Emoji" font-size="20px" fill="#000000" text-anchor="middle" style="white-space: pre;" direction="ltr" dominant-baseline="text-before-edge">9</text></g><g stroke-linecap="round" transform="translate(111.68481484992094 203.31336202790277) rotate(0 38.167021605795526 33.769195145275376)"><path d="M8.79 12.94 C8.79 12.94, 8.79 12.94, 8.79 12.94 M8.79 12.94 C8.79 12.94, 8.79 12.94, 8.79 12.94 M2.8 27.96 C7.24 21.73, 11.71 12.03, 21.12 4.67 M1.74 25.99 C6.33 21.25, 11.62 16.56, 20.68 5.5 M1.36 34.18 C13.12 21.39, 21.1 9.88, 28.94 0.41 M0.9 32.3 C11.83 20.44, 23.65 8.44, 29.23 2.27 M1.39 39.01 C9.12 32.23, 14.6 25.03, 35.71 2.03 M2.59 37.78 C10.23 31.63, 15.49 22.98, 34.43 2.92 M2.23 43.14 C14.69 31.77, 26.74 16.78, 40.76 0.34 M3.95 42.48 C13.02 33.81, 20.97 23.6, 40.13 1.57 M4.92 49.08 C20.06 30.7, 31.51 17.41, 45.97 3.99 M5.56 47.7 C20.82 30.71, 35.26 12.82, 44.3 1.79 M7.67 54.41 C20.26 37.16, 35.48 22.84, 47.76 2.92 M5.76 52.42 C16.48 41.9, 24.88 30.19, 49.94 3.15 M7.17 57.27 C24.66 39.2, 40.17 20.5, 53.2 4.44 M8.84 55.83 C25.41 34.62, 43.36 14.29, 54.07 4.38 M11.48 57.14 C29.64 37.46, 44.41 20.14, 57.43 7.64 M12.85 57.34 C23.09 43.87, 34.83 30.74, 55.98 7 M15.38 58.56 C29.57 43.35, 48.23 23.49, 58.99 7.69 M15.76 59.38 C30.54 42.31, 44.83 25.32, 59.51 8.66 M19.1 60.13 C29.75 50.07, 42.34 34.15, 62.73 9.84 M19.11 61.51 C32.56 45.28, 47.91 28.91, 62.75 10.3 M23.76 63.8 C37.59 47.58, 53.92 28.23, 65.74 14.64 M22.31 64.82 C36.25 47.18, 52.18 29.12, 66.91 14.51 M25.46 68.07 C36.83 53.8, 49.47 38.97, 67.53 16.24 M25.59 66.31 C35.03 56.04, 43.21 44.42, 69.33 16.92 M32 67.74 C38.88 57.49, 46.81 46.94, 71.4 20.83 M29.63 67.76 C38.66 58.1, 48.23 46.79, 71.77 19.78 M37 67.71 C47.15 52.02, 57.8 39.95, 75.91 23.45 M34.54 68.58 C49.31 51.77, 65.2 33.97, 74.71 23.92 M39.97 66.95 C45.78 57.82, 53.96 52.78, 75.53 26.69 M40.78 68.99 C51.9 53.76, 64.25 40.88, 74.9 26.51 M44.41 68.25 C56.71 56.41, 70.68 42.53, 77.48 32.46 M46.16 68.85 C56.08 57.15, 65.51 43.87, 77.09 32.05 M49.19 70.95 C57.1 59.34, 65.89 50.2, 78.49 37.26 M50.09 69.54 C54.97 62.78, 62.27 55.35, 77.61 36.66" stroke="#b2f2bb" stroke-width="0.5" fill="none"></path><path d="M51.79 2.28 C58.43 4.33, 65.41 10.47, 69.62 16.24 C73.82 22.01, 77.46 30.38, 77.01 36.92 C76.57 43.45, 72.01 50.34, 66.96 55.43 C61.91 60.52, 53.93 65.88, 46.71 67.46 C39.49 69.03, 30.52 67.41, 23.64 64.91 C16.77 62.41, 9.42 57.91, 5.46 52.46 C1.5 47.02, -0.74 38.86, -0.13 32.22 C0.47 25.58, 4.37 17.92, 9.08 12.61 C13.78 7.3, 20.21 1.82, 28.1 0.34 C35.99 -1.13, 51.52 2.9, 56.42 3.78 C61.32 4.66, 57.83 5.01, 57.47 5.62 M28.32 1.68 C35.2 0, 45.23 1.13, 52.46 3.34 C59.69 5.54, 67.85 9.25, 71.7 14.91 C75.55 20.57, 76.18 30.42, 75.57 37.29 C74.95 44.17, 73.02 51.1, 68.04 56.17 C63.05 61.23, 52.91 66.22, 45.67 67.68 C38.42 69.14, 31.22 67.84, 24.58 64.94 C17.95 62.03, 9.89 55.97, 5.85 50.27 C1.82 44.57, -0.24 37.14, 0.39 30.71 C1.02 24.28, 4.85 16.51, 9.62 11.68 C14.39 6.86, 25.55 3.45, 29 1.74 C32.45 0.04, 30.15 0.84, 30.32 1.47" stroke="#000000" stroke-width="1" fill="none"></path></g><g transform="translate(142.21368276408066 224.70413029074206) rotate(0 7.649993896484375 12.5)"><text x="7.649993896484375" y="0" font-family="Virgil, Segoe UI Emoji" font-size="20px" fill="#000000" text-anchor="middle" style="white-space: pre;" direction="ltr" dominant-baseline="text-before-edge">8</text></g><g stroke-linecap="round" transform="translate(204.4737006054338 205.32366055111567) rotate(0 38.167021605795526 33.769195145275376)"><path d="M9.32 12.08 C9.32 12.08, 9.32 12.08, 9.32 12.08 M9.32 12.08 C9.32 12.08, 9.32 12.08, 9.32 12.08 M1.51 24.65 C5.66 18.56, 10.86 13.26, 20.47 5.4 M2.5 26.19 C6.55 21, 12.06 15.75, 18.37 8.04 M2.88 30.68 C12.08 20.14, 23.7 11.74, 27.53 1.91 M2.95 31.85 C9.97 22.31, 18.89 13.57, 29.03 1.7 M3.99 38.51 C15.42 23.1, 27.8 13.08, 33.9 3.37 M3.74 36.88 C15.13 24.48, 27.58 9.7, 33.11 3.08 M3.78 42.85 C17.54 27.58, 30.58 13.62, 37.47 3.68 M4.35 41.84 C16.29 30.58, 25.61 18.36, 38.65 4.64 M4.93 44.71 C14.12 36.18, 24.21 26.84, 41.9 2.1 M6.05 47.31 C18.81 31.37, 33.87 15.29, 43.65 3.78 M7.78 53.64 C17.89 38.87, 28.26 24.17, 47.06 3.65 M7.02 51.07 C20.33 34.84, 36.05 17.34, 47.67 4.21 M10.82 54.47 C25.69 36.42, 38.88 18.56, 53.62 2.45 M9.89 53.63 C20.67 40.52, 30.77 29.34, 55.52 2.02 M13.5 58.41 C24.27 42.96, 34.66 31.94, 56.43 5.69 M13.73 56.2 C23.18 44.09, 33 34.01, 57.77 4.65 M15.94 57.42 C28.35 44.32, 39.17 29.51, 61.52 6.05 M16.84 60.03 C28.51 45.69, 38.81 34.09, 60.89 8.1 M20.91 63.02 C31.16 48.23, 41.69 34.5, 63.55 10.3 M19.89 62 C34.8 44.05, 50.92 25.17, 63.8 10.48 M22.41 65.55 C31.28 53.43, 41.1 43.9, 64.34 12.27 M23.62 62.79 C36.63 48.97, 48.89 33.76, 65.52 13.78 M26.29 65.89 C35.08 54.59, 47.13 42.28, 70.75 14.59 M26.56 65.51 C37.04 53.84, 46.76 40.7, 68.24 16.53 M30.76 66.22 C45.17 49.52, 62.41 29.91, 73.99 17.93 M30.7 67.25 C45.22 49.27, 59.98 31.16, 71.65 19.92 M35.72 69.55 C47.54 56.29, 57.33 41.08, 74.19 24.29 M35.89 67.58 C43.58 57.56, 52.31 48.81, 74.74 23.93 M40.63 69.42 C52.26 56.53, 62.15 45.23, 74.27 26.71 M40.93 67.05 C49.01 58.05, 58.1 46.34, 74.71 27.96 M44.44 69.95 C56.58 56.43, 64.67 45.01, 77.86 31.53 M44.53 68.15 C54.79 59.03, 62.29 47.6, 76.09 31.91 M47.52 68.03 C55.21 59.72, 63.82 50.87, 76.64 39.66 M50.39 70.41 C56.43 60.63, 64.88 51.93, 77.14 38.39" stroke="#b2f2bb" stroke-width="0.5" fill="none"></path><path d="M30 1.26 C37.05 -0.71, 47.53 -0.59, 54.33 2.11 C61.12 4.81, 67.04 11.54, 70.77 17.45 C74.49 23.37, 77.54 30.99, 76.68 37.59 C75.82 44.19, 70.58 52.2, 65.6 57.06 C60.62 61.92, 53.93 65.63, 46.8 66.77 C39.68 67.9, 29.74 66.59, 22.82 63.86 C15.91 61.13, 9.03 56.01, 5.31 50.4 C1.6 44.78, -0.19 36.6, 0.53 30.16 C1.25 23.72, 4.18 16.71, 9.62 11.74 C15.06 6.76, 28.93 1.96, 33.15 0.29 C37.37 -1.39, 35.01 1.1, 34.93 1.67 M45.45 1.4 C52.63 2.21, 62.38 5.66, 67.45 10.2 C72.52 14.74, 74.96 22.06, 75.87 28.67 C76.77 35.27, 76.37 43.97, 72.87 49.82 C69.37 55.67, 61.75 60.73, 54.85 63.76 C47.94 66.79, 38.96 69.31, 31.46 67.98 C23.95 66.65, 14.76 60.61, 9.8 55.76 C4.84 50.9, 2.61 45.26, 1.71 38.86 C0.81 32.47, 1.07 23.48, 4.41 17.4 C7.74 11.31, 14.88 4.93, 21.72 2.36 C28.55 -0.22, 41.6 1.94, 45.41 1.96 C49.22 1.98, 44.92 2.4, 44.57 2.48" stroke="#000000" stroke-width="1" fill="none"></path></g><g transform="translate(235.84256485748415 226.71442881395495) rotate(0 6.80999755859375 12.5)"><text x="6.80999755859375" y="0" font-family="Virgil, Segoe UI Emoji" font-size="20px" fill="#000000" text-anchor="middle" style="white-space: pre;" direction="ltr" dominant-baseline="text-before-edge">3</text></g><g stroke-linecap="round" transform="translate(318.8553890259552 202.13392322687292) rotate(0 38.167021605795526 33.769195145275376)"><path d="M6.26 16.05 C6.26 16.05, 6.26 16.05, 6.26 16.05 M6.26 16.05 C6.26 16.05, 6.26 16.05, 6.26 16.05 M1.57 28.03 C9.57 20.67, 14.03 14.76, 20.28 4.87 M3.66 27.12 C7.07 20.44, 13.04 14.89, 22.41 5.16 M1.51 35.31 C8.37 27.14, 13.11 20.22, 25.64 4.3 M1.28 35.01 C6.87 28.21, 13.96 19.35, 27.34 3.15 M1.36 40.45 C9.44 29.52, 15.57 23.19, 33.27 4.16 M3.1 39.5 C11.7 29.48, 20.11 17.78, 33.18 4.48 M4.64 41.65 C15.8 27.8, 28.3 14.89, 39.15 4.5 M3.81 43.74 C15.85 28.94, 28.91 15.18, 39.11 2.76 M5.64 45.64 C18.21 31.15, 31.34 16.19, 44.79 3.68 M4.91 46.46 C16.98 35.77, 26.68 22.01, 43.85 3.11 M6.83 50.72 C20.92 33.9, 34.78 18.39, 50 1.66 M7.13 50.21 C23.96 33.36, 37.79 15.71, 49.25 2.56 M9.05 53.02 C21.43 40.99, 33.83 24.59, 51.72 5.44 M9.36 54.68 C26.3 35.96, 41.95 16.93, 54.02 4.69 M14.1 54.99 C30.82 37.15, 46.45 19.38, 57.92 6.35 M14.23 56.31 C29.98 38.25, 45.53 18.83, 56.52 5.93 M16.37 59.14 C29.12 43.59, 38.83 31.41, 61.15 7.03 M16.53 59.22 C33.44 39.21, 49.96 20.3, 61.18 7.77 M20.04 61.56 C34.6 47.55, 45.91 28.64, 64.65 11.72 M19.35 61.82 C35.08 41.91, 52.39 25.09, 63.45 12.11 M24.64 62.91 C38.79 49.33, 51.1 32.31, 68.33 11.43 M22.47 62.89 C37.6 45.63, 54.76 28.37, 66.67 13.59 M27.76 65.92 C39.36 49.98, 55.45 31.53, 68.27 17.29 M25.96 66.26 C43.27 48.69, 59.52 29.12, 70.51 16.05 M29.77 70.14 C44.01 52.15, 54.96 36.32, 72.78 19.99 M29.77 68.65 C45.24 50.43, 61.61 32.53, 71.79 19.09 M34.57 67.17 C45.11 57.9, 54.2 44.5, 72.42 23.52 M35.37 68.04 C43.32 57.25, 52.97 46.85, 73.49 24.94 M39.1 68.21 C45.82 60.03, 56.54 51.82, 73.51 28.2 M40.13 68.36 C53.29 53, 67.76 38.09, 75.03 28.63 M45.98 66.27 C54.87 57.59, 61.34 49.77, 75.51 33.17 M46.83 68.78 C54.98 57.85, 62.22 48.31, 76.62 33.6 M54.31 65.67 C58.96 59.21, 67.83 50.85, 72.51 43.43 M53.33 66.39 C59.53 58.81, 67.66 49.45, 71.54 43.82" stroke="#b2f2bb" stroke-width="0.5" fill="none"></path><path d="M48.4 0.68 C55.43 2.11, 63.63 8.34, 68.22 13.76 C72.81 19.19, 75.78 26.95, 75.93 33.25 C76.07 39.55, 73.18 46.22, 69.1 51.56 C65.02 56.9, 58.46 62.72, 51.46 65.28 C44.45 67.85, 34.18 68.86, 27.07 66.94 C19.96 65.03, 13.31 59.15, 8.78 53.8 C4.25 48.45, 0.29 41.15, -0.11 34.83 C-0.51 28.51, 2.22 21.4, 6.4 15.89 C10.58 10.38, 17.02 3.79, 24.98 1.77 C32.94 -0.24, 48.6 3.18, 54.17 3.78 C59.73 4.38, 58.73 4.93, 58.36 5.38 M46.8 0.49 C53.68 1.77, 60.84 7.57, 65.6 12.35 C70.36 17.12, 74.64 23.02, 75.38 29.15 C76.12 35.28, 73.78 43.46, 70.04 49.12 C66.3 54.79, 59.38 60.43, 52.95 63.16 C46.52 65.89, 38.66 66.45, 31.47 65.49 C24.28 64.54, 15.25 62.12, 9.8 57.43 C4.35 52.74, -0.46 44.28, -1.21 37.36 C-1.95 30.44, 1.26 21.65, 5.33 15.91 C9.4 10.16, 16.23 5.54, 23.21 2.87 C30.19 0.21, 43.19 -0.01, 47.19 -0.08 C51.18 -0.14, 47.51 2.02, 47.2 2.48" stroke="#000000" stroke-width="1" fill="none"></path></g><g transform="translate(350.63425694011494 223.5246914897122) rotate(0 6.399993896484375 12.5)"><text x="6.399993896484375" y="0" font-family="Virgil, Segoe UI Emoji" font-size="20px" fill="#000000" text-anchor="middle" style="white-space: pre;" direction="ltr" dominant-baseline="text-before-edge">4</text></g><g stroke-linecap="round"><g transform="translate(179.38498684310503 73.7288824783682) rotate(0 -17.451301478082996 15.41842350162063)"><path d="M-0.87 -0.06 C-7 4.88, -29.95 25.57, -35.77 30.79 M0.87 -1.14 C-4.98 4.46, -27.84 26.37, -33.56 31.98" stroke="#000000" stroke-width="1" fill="none"></path></g></g><mask></mask><g stroke-linecap="round"><g transform="translate(93.4759990563814 167.93042991451796) rotate(0 -17.677590431506474 15.793272127550665)"><path d="M-1.04 -0.6 C-6.89 4.69, -30.48 26.66, -35.98 32.19 M0.62 1.69 C-4.81 6.6, -28.04 25.59, -33.87 30.45" stroke="#000000" stroke-width="1" fill="none"></path></g></g><mask></mask><g stroke-linecap="round"><g transform="translate(281.55298611714807 168.3434655078994) rotate(0 -23.825543467761122 16.73617905697394)"><path d="M0.11 0.91 C-7.75 6.05, -38.93 26.5, -46.99 31.94 M-1.29 0.35 C-9.29 6.14, -40.34 27.9, -47.76 33.13" stroke="#000000" stroke-width="1" fill="none"></path></g></g><mask></mask><g stroke-linecap="round"><g transform="translate(143.1957421501861 171.77673068174738) rotate(0 13.69041247498592 15.647385303546756)"><path d="M-0.78 -0.15 C3.97 5.19, 23.43 27.19, 28.16 32.58 M1.01 -1.28 C5.63 3.63, 22.95 24.81, 27.2 30.59" stroke="#000000" stroke-width="1" fill="none"></path></g></g><mask></mask><g stroke-linecap="round"><g transform="translate(312.5287735757736 170.35376403111218) rotate(0 24.173819769907254 16.597151093009543)"><path d="M-0.12 -0.36 C7.89 5.12, 39.56 27.46, 47.88 33.26 M-1.64 -1.59 C6.74 4.06, 41.46 29.07, 49.99 34.78" stroke="#000000" stroke-width="1" fill="none"></path></g></g><mask></mask><g stroke-linecap="round"><g transform="translate(229.68828374666714 69.78941773320223) rotate(0 24.48996199356168 16.458429110442907)"><path d="M-0.44 -0.8 C7.63 4.75, 41.22 28.05, 49.42 33.72 M1.52 1.4 C9.39 6.55, 40.95 26.31, 48.67 31.82" stroke="#000000" stroke-width="1" fill="none">
  </path>
  </g>
  </g>
  <mask>
  </mask>
  </svg>